<svg width="1500" height="1500" viewBox="0 0 1500 1500" fill="none" xmlns="http://www.w3.org/2000/svg">
<g clip-path="url(#clip0_6_193)">
<path d="M904.258 443.21H596C588.975 443.218 582.241 446.013 577.274 450.982C572.306 455.95 569.512 462.687 569.504 469.713V1155.01L565.971 1156.09L490.35 1179.26C486.766 1180.35 482.895 1179.97 479.587 1178.21C476.278 1176.46 473.803 1173.46 472.704 1169.87L247.767 434.923C246.672 431.338 247.045 427.465 248.804 424.155C250.563 420.845 253.564 418.369 257.147 417.271L373.678 381.579L711.507 278.144L828.037 242.452C829.81 241.906 831.674 241.715 833.521 241.891C835.369 242.066 837.163 242.604 838.802 243.474C840.441 244.344 841.893 245.528 843.074 246.96C844.255 248.391 845.142 250.042 845.684 251.817L903.181 439.676L904.258 443.21Z" fill="#F2F2F2"/>
<path d="M971.524 439.676L902.227 213.263C901.074 209.49 899.189 205.982 896.68 202.938C894.171 199.895 891.087 197.376 887.605 195.525C884.122 193.674 880.309 192.527 876.383 192.151C872.458 191.775 868.496 192.176 864.726 193.332L700.89 243.495L363.079 346.948L199.244 397.128C191.633 399.466 185.26 404.729 181.524 411.762C177.788 418.794 176.995 427.023 179.318 434.64L416.16 1208.43C418.047 1214.58 421.855 1219.96 427.024 1223.78C432.193 1227.61 438.452 1229.68 444.883 1229.68C447.859 1229.68 450.818 1229.24 453.661 1228.36L565.97 1193.97L569.503 1192.88V1189.19L565.97 1190.26L452.619 1224.98C445.901 1227.03 438.645 1226.33 432.443 1223.04C426.24 1219.74 421.598 1214.12 419.534 1207.4L182.71 433.597C181.687 430.27 181.331 426.774 181.661 423.309C181.991 419.843 183.002 416.477 184.634 413.403C186.267 410.329 188.49 407.607 191.175 405.394C193.861 403.18 196.957 401.518 200.285 400.503L364.121 350.323L701.933 246.887L865.768 196.707C868.293 195.936 870.918 195.543 873.558 195.54C879.223 195.553 884.735 197.38 889.287 200.754C893.839 204.127 897.192 208.87 898.853 214.287L967.832 439.676L968.927 443.21H972.602L971.524 439.676Z" fill="#3F3D56"/>
<path d="M394.706 417.849C391.302 417.847 387.988 416.753 385.25 414.728C382.512 412.704 380.496 409.855 379.495 406.6L356.743 332.262C356.132 330.265 355.919 328.168 356.119 326.089C356.318 324.01 356.925 321.991 357.904 320.146C358.883 318.302 360.217 316.669 361.827 315.34C363.438 314.011 365.294 313.013 367.291 312.402L678.074 217.229C682.105 215.998 686.46 216.418 690.183 218.396C693.905 220.374 696.691 223.748 697.929 227.778L720.682 302.117C721.911 306.15 721.491 310.505 719.514 314.229C717.537 317.952 714.164 320.739 710.135 321.978L399.351 417.151C397.846 417.613 396.281 417.848 394.706 417.849V417.849Z" fill="#F9E426"/>
<path d="M513.892 271.431C533.403 271.431 549.22 255.61 549.22 236.093C549.22 216.576 533.403 200.754 513.892 200.754C494.38 200.754 478.563 216.576 478.563 236.093C478.563 255.61 494.38 271.431 513.892 271.431Z" fill="#F9E426"/>
<path d="M513.892 258.47C526.247 258.47 536.263 248.452 536.263 236.093C536.263 223.734 526.247 213.716 513.892 213.716C501.536 213.716 491.521 223.734 491.521 236.093C491.521 248.452 501.536 258.47 513.892 258.47Z" fill="white"/>
<path d="M1242.51 1220.65H645.46C641.479 1220.65 637.663 1219.07 634.848 1216.25C632.033 1213.43 630.45 1209.62 630.446 1205.64V490.033C630.45 486.051 632.033 482.234 634.848 479.418C637.663 476.602 641.479 475.019 645.46 475.014H1242.51C1246.49 475.019 1250.31 476.603 1253.12 479.418C1255.94 482.234 1257.52 486.051 1257.53 490.033V1205.64C1257.52 1209.62 1255.94 1213.43 1253.12 1216.25C1250.31 1219.07 1246.49 1220.65 1242.51 1220.65V1220.65Z" fill="#E6E6E6"/>
<path d="M967.832 439.676H596C588.039 439.687 580.408 442.855 574.779 448.486C569.149 454.117 565.982 461.75 565.971 469.713V1190.26L569.504 1189.19V469.713C569.512 462.687 572.306 455.95 577.274 450.982C582.241 446.013 588.975 443.218 596 443.21H968.928L967.832 439.676ZM1291.97 439.676H596C588.039 439.687 580.408 442.855 574.779 448.486C569.149 454.117 565.982 461.75 565.971 469.713V1278.96C565.982 1286.93 569.149 1294.56 574.779 1300.19C580.408 1305.82 588.039 1308.99 596 1309H1291.97C1299.93 1308.99 1307.56 1305.82 1313.19 1300.19C1318.82 1294.56 1321.99 1286.93 1322 1278.96V469.713C1321.99 461.75 1318.82 454.117 1313.19 448.486C1307.56 442.855 1299.93 439.687 1291.97 439.676V439.676ZM1318.47 1278.96C1318.46 1285.99 1315.66 1292.73 1310.7 1297.69C1305.73 1302.66 1299 1305.46 1291.97 1305.47H596C588.975 1305.46 582.241 1302.66 577.274 1297.69C572.306 1292.73 569.512 1285.99 569.504 1278.96V469.713C569.512 462.687 572.306 455.95 577.274 450.982C582.241 446.013 588.975 443.218 596 443.21H1291.97C1299 443.218 1305.73 446.013 1310.7 450.982C1315.66 455.95 1318.46 462.687 1318.47 469.713V1278.96Z" fill="#3F3D56"/>
<path d="M1105.8 549.614H780.783C776.568 549.609 772.527 547.932 769.546 544.951C766.566 541.97 764.89 537.927 764.885 533.711V455.967C764.89 451.751 766.566 447.709 769.546 444.728C772.527 441.746 776.568 440.069 780.783 440.065H1105.8C1110.02 440.069 1114.06 441.746 1117.04 444.728C1120.02 447.709 1121.7 451.751 1121.7 455.967V533.711C1121.7 537.927 1120.02 541.97 1117.04 544.951C1114.06 547.932 1110.02 549.609 1105.8 549.614V549.614Z" fill="#F9E426"/>
<path d="M943.985 413.172C963.497 413.172 979.314 397.351 979.314 377.834C979.314 358.317 963.497 342.495 943.985 342.495C924.474 342.495 908.657 358.317 908.657 377.834C908.657 397.351 924.474 413.172 943.985 413.172Z" fill="#F9E426"/>
<path d="M943.985 399.358C955.87 399.358 965.504 389.721 965.504 377.834C965.504 365.946 955.87 356.309 943.985 356.309C932.101 356.309 922.467 365.946 922.467 377.834C922.467 389.721 932.101 399.358 943.985 399.358Z" fill="white"/>
<path d="M378.732 1182.23C378.235 1182.62 377.725 1183 377.229 1183.4C370.499 1188.55 364.198 1194.24 358.389 1200.41C357.935 1200.87 357.482 1201.36 357.042 1201.84L357.028 1201.85C343.255 1216.8 332.364 1234.17 324.905 1253.08L324.863 1253.21C324.849 1253.25 324.835 1253.28 324.82 1253.32C321.864 1260.89 319.48 1268.67 317.69 1276.6C315.96 1284.34 314.543 1292.63 311.835 1300.09C311.424 1301.23 310.97 1302.37 310.488 1303.46H247.462C247.675 1302.34 247.902 1301.21 248.128 1300.09C251.335 1283.66 256.345 1267.64 263.07 1252.32C263.297 1251.81 263.524 1251.3 263.779 1250.79C267.25 1243.21 271.332 1235.94 275.984 1229.03C275.984 1229.02 275.985 1229.02 275.985 1229.02C275.986 1229.02 275.987 1229.02 275.988 1229.02C275.99 1229.01 275.991 1229.01 275.993 1229.01C275.995 1229.01 275.997 1229.01 275.998 1229.01C278.553 1225.24 281.297 1221.6 284.22 1218.11C291.802 1209.09 300.758 1201.32 310.758 1195.09C310.815 1195.05 310.885 1195.02 310.942 1194.98C330.845 1182.63 354.434 1176.75 376.988 1181.84H377.002C377.583 1181.96 378.15 1182.09 378.732 1182.23Z" fill="#F9E426"/>
<path d="M311.641 1280.64C309.586 1288.35 304.185 1294.77 297.664 1299.45C296.601 1300.21 295.509 1300.92 294.403 1301.59C294.063 1301.78 293.723 1302 293.369 1302.18C292.986 1302.41 292.603 1302.62 292.22 1302.82H261.558C261.005 1301.7 260.466 1300.57 259.927 1299.45C246.786 1271.83 237.558 1242.04 239.131 1211.69C239.756 1199.92 242.229 1188.32 246.46 1177.31C254.881 1155.38 270.248 1136.4 291.384 1126.85C291.908 1126.61 292.461 1126.37 293 1126.14C292.83 1126.75 292.66 1127.35 292.49 1127.96C290.222 1136.12 288.62 1144.46 287.698 1152.89C287.613 1153.54 287.542 1154.19 287.486 1154.86C285.472 1175.18 287.26 1195.7 292.759 1215.37C292.773 1215.42 292.787 1215.47 292.802 1215.51C294.007 1219.87 295.405 1224.15 296.998 1228.37C298.245 1231.7 299.592 1234.99 301.066 1238.22C307.218 1251.79 315.469 1266.25 311.641 1280.64Z" fill="#F9E426"/>
</g>
<path d="M323.56 1212.12C323.22 1212.21 322.88 1212.31 322.55 1212.41C315.542 1214.41 308.777 1217.19 302.38 1220.68C302.06 1220.85 301.74 1221.03 301.42 1221.21C292.58 1226.14 284.555 1232.41 277.63 1239.8C277.625 1239.81 277.621 1239.81 277.62 1239.82C277.54 1239.9 277.45 1239.99 277.38 1240.07C275.78 1241.79 274.24 1243.58 272.78 1245.42C269.924 1248.85 267.623 1252.71 265.96 1256.85C264.689 1260.3 264.241 1264 264.65 1267.66C264.68 1268.03 264.73 1268.39 264.78 1268.76C264.82 1269.05 264.86 1269.34 264.91 1269.64C265.57 1273.65 266.71 1277.67 266.39 1281.76C266.195 1283.86 265.559 1285.89 264.523 1287.72C263.487 1289.55 262.075 1291.14 260.38 1292.39C259.228 1293.28 257.996 1294.06 256.7 1294.73C254.847 1295.69 252.917 1296.48 250.93 1297.11H247C247.53 1296.96 248.05 1296.81 248.58 1296.66C250.461 1296.13 252.307 1295.48 254.11 1294.73C255.14 1294.3 256.142 1293.81 257.11 1293.25C261.13 1290.94 264.48 1287.4 265.18 1282.67C265.79 1278.53 264.61 1274.39 263.91 1270.34C263.79 1269.64 263.68 1268.95 263.62 1268.26C263.143 1264.75 263.433 1261.18 264.47 1257.8C265.909 1253.58 268.06 1249.64 270.83 1246.14C272.544 1243.86 274.373 1241.68 276.31 1239.59C276.55 1239.32 276.8 1239.05 277.06 1238.78C284.131 1231.34 292.294 1225.03 301.27 1220.05H301.28C307.954 1216.33 315.034 1213.4 322.38 1211.31H322.39C322.72 1211.21 323.06 1211.11 323.39 1211.02C324.08 1210.84 324.24 1211.93 323.56 1212.12Z" fill="white"/>
<defs>
<clipPath id="clip0_6_193">
<rect width="1144" height="1117" fill="white" transform="translate(178 192)"/>
</clipPath>
</defs>
</svg>
